<svg xmlns="http://www.w3.org/2000/svg" fill="none" height="91" width="260"><g clip-path="url(#a)" fill="#333"><path d="M35.347 22.678h-6.669c-.578 0-1.046.468-1.046 1.046v29.472c0 1.729-.17 3.23-.507 4.446-.325 1.163-.8 2.125-1.404 2.846a5.225 5.225 0 0 1-2.19 1.56c-.91.352-1.977.527-3.18.527-.896 0-1.618-.078-2.138-.228-.721-.208-1.287-.305-1.748-.305-.767 0-1.378.227-1.82.67-.41.409-.657.935-.722 1.566l-.377 3.945c-.045.508.28.982.774 1.112 2.288.605 4.55.91 6.72.91 2.445 0 4.648-.403 6.553-1.19 1.924-.799 3.568-1.969 4.868-3.477 1.287-1.489 2.282-3.328 2.945-5.46.656-2.093.988-4.479.988-7.079V23.724c0-.578-.468-1.046-1.047-1.046zm55.348 13.923c-1.118-2.938-2.73-5.505-4.784-7.637-2.055-2.133-4.544-3.81-7.398-4.999-2.853-1.183-6.051-1.788-9.516-1.788-3.464 0-6.636.599-9.496 1.788-2.866 1.19-5.356 2.873-7.404 5.005-2.04 2.126-3.646 4.693-4.777 7.631-1.124 2.925-1.697 6.162-1.697 9.614 0 3.451.573 6.714 1.697 9.632 1.131 2.925 2.736 5.486 4.777 7.612 2.048 2.132 4.538 3.809 7.404 4.986 2.86 1.176 6.051 1.768 9.497 1.768 3.444 0 6.662-.598 9.509-1.768 2.853-1.177 5.35-2.854 7.403-4.986 2.055-2.126 3.66-4.693 4.778-7.618 1.118-2.919 1.683-6.156 1.683-9.627 0-3.47-.565-6.688-1.683-9.613m-8.275 16.49c-.682 1.977-1.657 3.673-2.898 5.038a12.393 12.393 0 0 1-4.505 3.133c-1.775.728-3.796 1.099-6.006 1.099-2.21 0-4.232-.371-6.006-1.099-1.755-.721-3.282-1.775-4.524-3.133-1.255-1.365-2.236-3.061-2.912-5.037-.689-1.996-1.04-4.31-1.04-6.877 0-2.568.351-4.856 1.04-6.865.683-1.982 1.664-3.678 2.912-5.05a12.675 12.675 0 0 1 4.53-3.152c1.775-.735 3.797-1.112 6.006-1.112 2.21 0 4.232.37 6.006 1.111a12.41 12.41 0 0 1 4.511 3.153c1.242 1.372 2.224 3.068 2.9 5.05.688 2.009 1.04 4.323 1.04 6.864 0 2.542-.352 4.876-1.04 6.878m46.988-3.342c-.676-1.404-1.573-2.613-2.678-3.588a14.827 14.827 0 0 0-3.672-2.372 41.29 41.29 0 0 0-4.017-1.593 547.243 547.243 0 0 0-3.92-1.3c-1.202-.396-2.288-.858-3.224-1.39-.877-.495-1.586-1.086-2.112-1.769-.475-.61-.702-1.384-.702-2.366 0-.793.143-1.534.429-2.203a4.753 4.753 0 0 1 1.254-1.73c.566-.5 1.281-.903 2.139-1.202.877-.305 1.924-.461 3.113-.461 1.274 0 2.373.156 3.263.461.93.319 1.736.676 2.392 1.066.689.41 1.268.78 1.723 1.112.669.48 1.287.715 1.891.715.605 0 1.079-.15 1.489-.449.351-.253.656-.61.942-1.098a.18.18 0 0 0 .026-.052l1.632-3.166a1.04 1.04 0 0 0-.208-1.235c-1.658-1.592-3.64-2.834-5.883-3.685-2.229-.845-4.699-1.274-7.338-1.274-2.379 0-4.531.377-6.403 1.124-1.872.748-3.477 1.762-4.771 3.01a12.893 12.893 0 0 0-2.977 4.342 13.128 13.128 0 0 0-1.02 5.07c0 2.145.338 3.984 1.001 5.48.663 1.494 1.56 2.762 2.665 3.763a13.916 13.916 0 0 0 3.692 2.392c1.3.578 2.652 1.092 4.017 1.527 1.339.43 2.645.845 3.919 1.242 1.196.377 2.282.832 3.211 1.352.865.487 1.56 1.092 2.074 1.8.468.65.708 1.528.708 2.613 0 1.027-.175 1.963-.513 2.795a5.925 5.925 0 0 1-1.443 2.087c-.631.578-1.424 1.027-2.366 1.345-.969.325-2.1.494-3.361.494-1.553 0-2.873-.208-3.926-.617-1.105-.43-2.06-.904-2.84-1.417a25.874 25.874 0 0 1-2.048-1.463c-.773-.617-1.482-.916-2.171-.916a2.68 2.68 0 0 0-1.456.416 3.816 3.816 0 0 0-.949.877 1.11 1.11 0 0 0-.058.091l-1.911 3.192c-.24.396-.182.91.13 1.248a18.08 18.08 0 0 0 3.009 2.58 21.131 21.131 0 0 0 3.582 1.95 21.787 21.787 0 0 0 8.45 1.69c2.522 0 4.816-.396 6.818-1.183 2.015-.786 3.744-1.898 5.135-3.289a14.213 14.213 0 0 0 3.192-4.9c.721-1.847 1.092-3.855 1.092-5.955s-.345-3.744-1.027-5.167m115.764-13.143c-1.124-2.938-2.73-5.505-4.777-7.637-2.054-2.133-4.544-3.81-7.397-4.999-2.854-1.183-6.052-1.788-9.516-1.788-3.465 0-6.637.599-9.497 1.788-2.866 1.19-5.356 2.873-7.403 5.005-2.041 2.126-3.647 4.693-4.778 7.631-1.124 2.925-1.696 6.162-1.696 9.614 0 3.451.572 6.714 1.696 9.632 1.131 2.925 2.737 5.486 4.778 7.612 2.047 2.132 4.537 3.809 7.403 4.986 2.86 1.176 6.052 1.768 9.497 1.768 3.445 0 6.662-.598 9.509-1.768 2.854-1.177 5.35-2.854 7.404-4.986 2.047-2.126 3.659-4.693 4.777-7.618 1.118-2.912 1.684-6.156 1.684-9.627 0-3.47-.566-6.688-1.684-9.613zm-8.274 16.49c-.683 1.977-1.658 3.673-2.899 5.038a12.367 12.367 0 0 1-4.511 3.133c-1.775.728-3.796 1.099-6.006 1.099-2.21 0-4.232-.371-6.006-1.099-1.755-.721-3.283-1.775-4.524-3.133-1.255-1.371-2.236-3.061-2.912-5.037-.689-1.996-1.04-4.31-1.04-6.877 0-2.568.351-4.856 1.04-6.865.682-1.982 1.657-3.678 2.912-5.05a12.596 12.596 0 0 1 4.53-3.152c1.775-.735 3.796-1.112 6.006-1.112 2.21 0 4.225.37 6 1.111A12.414 12.414 0 0 1 234 34.3c1.241 1.372 2.216 3.068 2.899 5.05.689 2.009 1.04 4.316 1.04 6.864 0 2.549-.351 4.882-1.04 6.878zM170.17 40.378l-21.307-17.92a1.074 1.074 0 0 0-.689-.254h-6.078c-.591 0-1.072.48-1.072 1.072v44.35a2.627 2.627 0 0 0 2.626 2.626h4.524c.591 0 1.072-.481 1.072-1.073V33.013l14.177 12.415s.065.052.097.072c1.092.754 2.555.585 3.562-.41l3.159-3.14c.215-.214.332-.506.319-.805a1.077 1.077 0 0 0-.384-.78m20.495-18.084a1.072 1.072 0 0 0-1.176.26l-6.078 6.396a1.084 1.084 0 0 0-.299.741v39.507c0 .592.481 1.073 1.073 1.073h4.465a2.686 2.686 0 0 0 2.685-2.685v-44.29c0-.443-.267-.833-.676-1.002"></path></g><defs><clipPath id="a"><path fill="#fff" d="M0 0h260v91H0z"></path></clipPath></defs></svg>