<?xml version="1.0" standalone="no"?>
<!DOCTYPE svg PUBLIC "-//W3C//DTD SVG 20010904//EN"
 "http://www.w3.org/TR/2001/REC-SVG-20010904/DTD/svg10.dtd">
<svg version="1.0" xmlns="http://www.w3.org/2000/svg"
 width="800.000000pt" height="800.000000pt" viewBox="0 0 800.000000 800.000000"
 preserveAspectRatio="xMidYMid meet">

<g transform="translate(0.000000,800.000000) scale(0.100000,-0.100000)"
fill="#000000" stroke="none">
<path d="M2607 6019 c-89 -21 -206 -114 -238 -190 l-14 -34 -7 45 c-3 25 -7
71 -7 103 l-1 57 -205 0 -205 0 0 -52 c0 -29 -7 -233 -15 -453 -8 -220 -15
-442 -15 -493 l0 -92 272 2 271 3 -2 262 -2 262 26 17 c25 17 27 16 48 -5 21
-21 22 -31 27 -279 l5 -257 240 0 240 0 3 262 2 263 26 16 c24 16 26 16 47 -5
l22 -22 6 -837 c6 -911 6 -909 64 -1007 75 -127 215 -174 376 -126 63 20 80
31 136 86 l63 63 21 -35 c29 -47 65 -79 119 -105 37 -18 63 -22 140 -22 108
-1 160 17 237 80 l43 35 0 -588 c0 -324 5 -618 10 -655 14 -99 47 -175 97
-230 60 -63 114 -83 224 -83 77 1 94 5 152 33 44 22 81 50 111 84 l44 51 17
-33 c23 -45 71 -88 125 -112 60 -28 193 -30 268 -4 62 21 150 98 190 165 24
41 27 43 29 21 1 -14 5 -60 8 -103 l7 -77 201 2 202 3 2 55 c1 30 7 217 13
415 5 198 13 417 16 488 l7 127 -278 0 -278 0 8 -260 c5 -200 4 -264 -5 -275
-15 -18 -66 -20 -77 -2 -4 6 -10 129 -13 272 l-5 260 -242 3 -243 2 0 -258 c0
-238 -1 -260 -18 -275 -25 -23 -59 -21 -72 3 -18 34 -16 950 3 1445 9 242 17
458 17 480 l0 40 -273 0 -272 -1 4 -261 4 -261 -26 -17 c-20 -13 -30 -14 -46
-5 -12 6 -22 12 -23 13 -1 1 -4 120 -7 265 l-6 263 -243 2 -242 2 0 -262 0
-263 -24 -15 c-33 -22 -63 -6 -71 38 -3 17 -6 394 -8 837 -4 884 -4 884 -65
994 -57 101 -165 154 -294 143 -93 -8 -166 -43 -232 -112 l-54 -55 -12 30
c-42 102 -209 163 -353 129z"/>
<path d="M3704 5996 c-11 -28 2 -600 14 -638 21 -64 74 -130 122 -155 107 -55
276 -52 395 6 33 17 61 28 64 26 9 -9 -46 -101 -72 -119 -59 -43 -281 -27
-421 30 -33 13 -61 24 -63 24 -2 0 -3 -89 -3 -198 l0 -198 113 -27 c164 -38
326 -53 440 -39 123 15 178 33 268 87 158 94 226 190 250 353 8 58 13 216 13
472 l1 385 -245 0 -245 0 -1 -252 c-1 -276 -2 -283 -59 -283 -62 0 -64 8 -67
286 l-3 249 -248 2 c-204 2 -249 0 -253 -11z"/>
<path d="M2385 4589 c-242 -23 -402 -155 -462 -381 -22 -83 -22 -278 0 -371
35 -144 125 -266 237 -320 180 -87 427 -87 608 -1 186 89 293 294 278 534 -10
173 -53 278 -156 380 -127 128 -293 180 -505 159z m157 -593 c23 -14 41 -67
33 -99 -19 -72 -123 -99 -171 -44 -47 55 -25 144 41 160 25 6 74 -2 97 -17z"/>
<path d="M5620 4565 c-96 -27 -170 -85 -228 -178 -32 -52 -42 -47 -42 21 0 20
-3 61 -6 90 l-7 52 -187 0 -187 0 -12 -462 c-18 -667 -18 -623 -3 -622 6 1
120 2 253 3 l240 1 -2 257 c-2 256 -2 256 21 275 26 21 54 17 85 -13 19 -18
20 -35 23 -269 2 -146 7 -250 13 -250 5 0 123 0 262 -1 l252 0 0 363 c-1 245
-5 385 -13 431 -28 151 -81 235 -177 283 -70 34 -200 42 -285 19z"/>
<path d="M894 3093 c-9 -370 -9 -593 2 -890 l6 -173 189 0 189 0 0 28 c0 15 3
43 6 62 l6 35 38 -36 c63 -60 122 -83 221 -87 206 -9 348 67 429 228 44 87 62
182 61 327 0 304 -87 467 -282 533 -123 42 -303 26 -400 -36 l-39 -24 0 195 0
195 -209 0 -209 0 -8 -357z m661 -538 c19 -18 25 -35 25 -68 0 -61 -23 -88
-81 -94 -38 -4 -50 -1 -75 20 -24 21 -29 33 -29 72 0 39 5 51 28 71 39 33 99
33 132 -1z"/>
<path d="M6525 3151 c-187 -23 -320 -104 -371 -226 -25 -60 -30 -171 -10 -239
33 -112 124 -179 286 -211 93 -19 108 -26 87 -43 -23 -19 -258 17 -349 53 -17
7 -18 -6 -18 -189 l0 -195 73 -22 c167 -50 251 -61 427 -56 133 3 178 8 231
26 99 31 163 83 201 160 28 56 32 72 31 146 -1 126 -34 185 -129 234 -44 23
-159 51 -210 51 -38 0 -66 26 -39 36 43 17 253 -15 338 -51 16 -7 17 7 17 218
l0 226 -81 26 c-147 46 -361 71 -484 56z"/>
<path d="M3632 3138 c-156 -13 -259 -56 -341 -143 -96 -102 -134 -214 -132
-400 2 -315 127 -493 387 -550 58 -13 108 -16 222 -13 157 5 228 21 320 74
l42 25 0 155 c0 145 -1 156 -17 149 -63 -24 -200 -48 -283 -48 -109 -2 -172
20 -178 60 l-3 23 298 2 298 3 -3 123 c-7 293 -104 453 -314 521 -54 18 -201
27 -296 19z m133 -452 c34 -14 55 -41 55 -70 0 -13 -14 -16 -83 -16 -46 0 -86
3 -90 6 -13 14 17 67 47 80 38 16 31 16 71 0z"/>
<path d="M2827 3130 c-98 -25 -209 -112 -253 -199 l-21 -42 -6 53 c-4 29 -7
79 -7 111 l0 57 -189 0 -189 0 -6 -72 c-6 -78 -26 -802 -26 -930 l0 -78 253 0
253 0 -4 254 c-4 252 -4 254 18 276 18 18 29 21 63 16 90 -12 307 -29 312 -24
3 2 15 129 27 281 16 204 19 280 10 289 -14 14 -186 20 -235 8z"/>
</g>
</svg>
